<svg xmlns="http://www.w3.org/2000/svg" xmlns:xlink="http://www.w3.org/1999/xlink" viewBox="0 0 405.575 331.42">
  <defs>
    <style>
      .cls-1 {
        fill: #0fd;
      }

      .cls-2, .cls-3, .cls-4, .cls-5 {
        fill: #f5f5f5;
      }

      .cls-2 {
        opacity: 0.28;
      }

      .cls-4 {
        opacity: 0.31;
      }

      .cls-5 {
        opacity: 0.08;
      }

      .cls-6 {
        fill: #404170;
      }

      .cls-7 {
        fill: url(#linear-gradient);
      }

      .cls-8 {
        fill: #bffee6;
      }

      .cls-9 {
        fill: #31feae;
      }

      .cls-10 {
        fill: #a1feda;
      }

      .cls-11 {
        fill: #3564fb;
      }

      .cls-12 {
        fill: #a2b8ff;
      }

      .cls-13 {
        fill: #7d9cff;
      }

      .cls-14 {
        fill: #3b5dca;
      }

      .cls-15 {
        fill: #597ff7;
      }

      .cls-16 {
        fill: #5f84fb;
      }

      .cls-17 {
        fill: #8331fe;
      }

      .cls-18 {
        fill: #aebff7;
      }

      .cls-19 {
        fill: #615e8a;
      }

      .cls-20, .cls-22 {
        fill: none;
      }

      .cls-20 {
        stroke: #fff;
        stroke-width: 2px;
      }

      .cls-21 {
        fill: #606cb9;
      }

      .cls-22 {
        stroke: #a1ffd9;
        stroke-width: 3px;
      }
    </style>
    <linearGradient id="linear-gradient" x1="0.5" x2="0.5" y2="1" gradientUnits="objectBoundingBox">
      <stop offset="0" stop-color="#43aaaa"/>
      <stop offset="1" stop-color="#364ac5"/>
    </linearGradient>
  </defs>
  <g id="City_Illustration" data-name="City Illustration" transform="translate(-1365.782 -616.58)">
    <path id="City_grass" data-name="City grass" class="cls-1" d="M1488.329,646.317v-30H1891.9v30Z" transform="translate(-120.547 301.683)"/>
    <g id="Buidings">
      <g id="Buiding_Shadow" data-name="Buiding Shadow">
        <path id="Path_23" data-name="Path 23" class="cls-2" d="M1488.329,777.778V616.317h26.547V777.778Z" transform="translate(-122.547 45.418)"/>
        <path id="Path_29" data-name="Path 29" class="cls-3" d="M1488.329,788.891V616.317h26.547V788.891Z" transform="translate(-30.547 5.305)"/>
        <path id="Path_21" data-name="Path 21" class="cls-4" d="M1488.329,783.778V616.317h96.791V783.778Z" transform="translate(176.453 45.418)"/>
        <path id="Path_31" data-name="Path 31" class="cls-5" d="M1488.329,810.982V616.317h34.257V810.982Z" transform="translate(28.453 5.214)"/>
      </g>
      <g id="Core">
        <path id="Path_8" data-name="Path 8" class="cls-6" d="M1488.329,771.2V616.317h59.7V771.2Z" transform="translate(-112 54)"/>
        <path id="Path_9" data-name="Path 9" class="cls-6" d="M1488.329,824.933V616.317h96.791V824.933Z" transform="translate(-43.547 0.263)"/>
        <path id="Path_10" data-name="Path 10" class="cls-6" d="M1488.329,660.749V616.317h96.791v44.432Z" transform="translate(68.453 164.447)"/>
        <path id="Path_11" data-name="Path 11" class="cls-6" d="M1488.329,771.2V616.317h96.791V771.2Z" transform="translate(168.453 54)"/>
      </g>
    </g>
    <path id="City_water" data-name="City water" class="cls-7" d="M1488.329,692.6V616.317H1891.9V692.6Z" transform="translate(-120.547 217.164)"/>
    <g id="Windows" transform="translate(8 40)">
      <path id="Path_13" data-name="Path 13" class="cls-8" d="M1488.329,628.451V616.317h36.6v12.134Z" transform="translate(-43.196 -19.786)"/>
      <path id="Path_14" data-name="Path 14" class="cls-9" d="M1488.329,628.451V616.317h36.6v12.134Z" transform="translate(-43.196 2.214)"/>
      <path id="Path_25" data-name="Path 25" class="cls-9" d="M1488.329,628.451V616.317h83.718v12.134Z" transform="translate(168.244 110.214)"/>
      <path id="Path_26" data-name="Path 26" class="cls-9" d="M1488.329,628.451V616.317h83.718v12.134Z" transform="translate(169.244 132.214)"/>
      <path id="Path_18" data-name="Path 18" class="cls-10" d="M1488.329,628.451V616.317h36.6v12.134Z" transform="translate(-108.196 26.214)"/>
      <path id="Path_20" data-name="Path 20" class="cls-11" d="M1488.329,628.451V616.317h36.6v12.134Z" transform="translate(-108.196 146.214)"/>
      <path id="Path_19" data-name="Path 19" class="cls-12" d="M1488.329,665.366V616.317h36.6v49.049Z" transform="translate(-108.196 54.299)"/>
      <path id="Path_15" data-name="Path 15" class="cls-13" d="M1488.329,650.981V616.317h36.6v34.664Z" transform="translate(-3.196 47.214)"/>
      <path id="Path_16" data-name="Path 16" class="cls-14" d="M1488.329,650.981V616.317h36.6v34.664Z" transform="translate(-46.196 46.214)"/>
      <path id="Path_17" data-name="Path 17" class="cls-15" d="M1488.329,650.981V616.317h36.6v34.664Z" transform="translate(-12.196 117.214)"/>
      <path id="Path_27" data-name="Path 27" class="cls-8" d="M1488.329,641.173V616.317h62.839v24.856Z" transform="translate(169.124 28.214)"/>
      <path id="Path_28" data-name="Path 28" class="cls-16" d="M1488.329,634.3V616.317h17.447V634.3Z" transform="translate(194.38 56.071)"/>
      <path id="Path_46" data-name="Path 46" class="cls-16" d="M1488.329,634.3V616.317h17.447V634.3Z" transform="translate(194.38 82.071)"/>
      <path id="Path_47" data-name="Path 47" class="cls-16" d="M1488.329,634.3V616.317h17.447V634.3Z" transform="translate(169.38 82.071)"/>
      <path id="Path_48" data-name="Path 48" class="cls-9" d="M1488.329,634.3V616.317h17.447V634.3Z" transform="translate(169.38 56.071)"/>
      <path id="Path_65" data-name="Path 65" class="cls-9" d="M1488.329,634.3V616.317h17.447V634.3Z" transform="translate(126.38 135.071)"/>
      <path id="Path_66" data-name="Path 66" class="cls-17" d="M1488.329,634.3V616.317h17.447V634.3Z" transform="translate(102.38 135.071)"/>
      <path id="Path_44" data-name="Path 44" class="cls-13" d="M1488.329,634.3V616.317h17.447V634.3Z" transform="translate(232.38 56.071)"/>
      <path id="Path_45" data-name="Path 45" class="cls-18" d="M1488.329,634.3V616.317h17.447V634.3Z" transform="translate(232.38 84.071)"/>
    </g>
    <path id="Bridge" class="cls-19" d="M1580.487,875.465c.978-.3-17.851-39.028.259-85.281,43.6.158,39.974,0,39.974,0s-11.39,42.656,5.458,85.281C1578.79,873.793,1579.509,875.766,1580.487,875.465Z" transform="translate(8 40)"/>
    <g id="Water_Turbulence" data-name="Water Turbulence" transform="translate(8 40)">
      <g id="Group_4" data-name="Group 4">
        <path id="Path_42" data-name="Path 42" class="cls-20" d="M1386.329,831.326s18.213,3.509,21.8-5.227" transform="translate(11.849 1.991)"/>
        <path id="Path_43" data-name="Path 43" class="cls-20" d="M1401.35,831.326a23.044,23.044,0,0,1-3.78.626c-3.735.334-9.631-.157-11.241-5.853" transform="translate(32.13 1.991)"/>
      </g>
      <g id="Group_5" data-name="Group 5" transform="translate(74 -14)">
        <path id="Path_42-2" data-name="Path 42" class="cls-20" d="M1386.329,831.326s18.213,3.509,21.8-5.227" transform="translate(11.849 1.991)"/>
        <path id="Path_43-2" data-name="Path 43" class="cls-20" d="M1401.35,831.326a23.044,23.044,0,0,1-3.78.626c-3.735.334-9.631-.157-11.241-5.853" transform="translate(32.13 1.991)"/>
      </g>
      <g id="Group_8" data-name="Group 8" transform="translate(85 17)">
        <path id="Path_42-3" data-name="Path 42" class="cls-20" d="M1386.329,831.326s18.213,3.509,21.8-5.227" transform="translate(11.849 1.991)"/>
        <path id="Path_43-3" data-name="Path 43" class="cls-20" d="M1401.35,831.326a23.044,23.044,0,0,1-3.78.626c-3.735.334-9.631-.157-11.241-5.853" transform="translate(32.13 1.991)"/>
      </g>
      <g id="Group_17" data-name="Group 17" transform="translate(315 14)">
        <path id="Path_42-4" data-name="Path 42" class="cls-20" d="M1386.329,831.326s18.213,3.509,21.8-5.227" transform="translate(11.849 1.991)"/>
        <path id="Path_43-4" data-name="Path 43" class="cls-20" d="M1401.35,831.326a23.044,23.044,0,0,1-3.78.626c-3.735.334-9.631-.157-11.241-5.853" transform="translate(32.13 1.991)"/>
      </g>
      <g id="Group_18" data-name="Group 18" transform="translate(245 -17)">
        <path id="Path_42-5" data-name="Path 42" class="cls-20" d="M1386.329,831.326s18.213,3.509,21.8-5.227" transform="translate(11.849 1.991)"/>
        <path id="Path_43-5" data-name="Path 43" class="cls-20" d="M1401.35,831.326a23.044,23.044,0,0,1-3.78.626c-3.735.334-9.631-.157-11.241-5.853" transform="translate(32.13 1.991)"/>
      </g>
    </g>
    <g id="Fence" transform="translate(8 40)">
      <g id="Poles">
        <rect id="Rectangle_13" data-name="Rectangle 13" class="cls-21" width="5" height="25" rx="2" transform="translate(1375 858)"/>
        <rect id="Rectangle_18" data-name="Rectangle 18" class="cls-21" width="5" height="25" rx="2" transform="translate(1450 858)"/>
        <rect id="Rectangle_21" data-name="Rectangle 21" class="cls-21" width="5" height="25" rx="2" transform="translate(1525 858)"/>
        <rect id="Rectangle_14" data-name="Rectangle 14" class="cls-21" width="5" height="25" rx="2" transform="translate(1400 858)"/>
        <rect id="Rectangle_17" data-name="Rectangle 17" class="cls-21" width="5" height="25" rx="2" transform="translate(1475 858)"/>
        <rect id="Rectangle_20" data-name="Rectangle 20" class="cls-21" width="5" height="25" rx="2" transform="translate(1550 858)"/>
        <rect id="Rectangle_15" data-name="Rectangle 15" class="cls-21" width="5" height="25" rx="2" transform="translate(1425 858)"/>
        <rect id="Rectangle_16" data-name="Rectangle 16" class="cls-21" width="5" height="25" rx="2" transform="translate(1500 858)"/>
      </g>
      <g id="Ropes">
        <path id="Path_45-2" data-name="Path 45" class="cls-22" d="M1377.5,858c.427-.951,14.2,16.906,25.443,0" transform="translate(0 4)"/>
        <path id="Path_46-2" data-name="Path 46" class="cls-22" d="M1377.5,858c.427-.951,14.2,16.906,25.443,0" transform="translate(25 5)"/>
        <path id="Path_47-2" data-name="Path 47" class="cls-22" d="M1377.5,858c.427-.951,14.2,16.906,25.443,0" transform="translate(50 3)"/>
        <path id="Path_48-2" data-name="Path 48" class="cls-22" d="M1377.5,858c.427-.951,14.2,16.906,25.443,0" transform="translate(75 5)"/>
        <path id="Path_49" data-name="Path 49" class="cls-22" d="M1377.5,858c.427-.951,14.2,16.906,25.443,0" transform="translate(101 3)"/>
        <path id="Path_50" data-name="Path 50" class="cls-22" d="M1377.5,858c.427-.951,14.2,16.906,25.443,0" transform="translate(125 7)"/>
        <path id="Path_51" data-name="Path 51" class="cls-22" d="M1377.5,858c.427-.951,14.2,16.906,25.443,0" transform="translate(150 5)"/>
      </g>
    </g>
  </g>
</svg>
