<svg xmlns="http://www.w3.org/2000/svg" viewBox="0 0 291.18 200.329">
  <defs>
    <style>
      .cls-1 {
        fill: #494656;
      }

      .cls-2, .cls-3 {
        fill: none;
        stroke: #fd0;
      }

      .cls-2 {
        stroke-width: 18px;
      }

      .cls-3 {
        stroke-width: 15px;
      }
    </style>
  </defs>
  <g id="Strom_icon" data-name="Strom icon" transform="translate(-1529 -450.012)">
    <ellipse id="Ellipse_14" data-name="Ellipse 14" class="cls-1" cx="55.298" cy="51.682" rx="55.298" ry="51.682" transform="translate(1529 490.389)"/>
    <ellipse id="Ellipse_15" data-name="Ellipse 15" class="cls-1" cx="55.298" cy="51.682" rx="55.298" ry="51.682" transform="translate(1569.61 467.778)"/>
    <circle id="Ellipse_16" data-name="Ellipse 16" class="cls-1" cx="55.298" cy="55.298" r="55.298" transform="translate(1618.86 476.787)"/>
    <ellipse id="Ellipse_17" data-name="Ellipse 17" class="cls-1" cx="55.298" cy="51.682" rx="55.298" ry="51.682" transform="translate(1631.82 450.012)"/>
    <ellipse id="Ellipse_18" data-name="Ellipse 18" class="cls-1" cx="55.298" cy="51.682" rx="55.298" ry="51.682" transform="translate(1687.118 477.468)"/>
    <ellipse id="Ellipse_19" data-name="Ellipse 19" class="cls-1" cx="55.298" cy="51.682" rx="55.298" ry="51.682" transform="translate(1709.583 507.347)"/>
    <circle id="Ellipse_20" data-name="Ellipse 20" class="cls-1" cx="55.298" cy="55.298" r="55.298" transform="translate(1639.596 500.116)"/>
    <ellipse id="Ellipse_21" data-name="Ellipse 21" class="cls-1" cx="55.298" cy="51.682" rx="55.298" ry="51.682" transform="translate(1569.61 507.347)"/>
    <path id="Path_59" data-name="Path 59" class="cls-2" d="M3701.846-562.351,3640.5-623.7l22.465-10.368,26.785,5.184,9.5-22.465L3661.237-688.5" transform="translate(-1969.366 1206.328)"/>
    <path id="Path_60" data-name="Path 60" class="cls-3" d="M3623.881-674.4l31.24,25.868L3630.327-626.3l17.273,36.2" transform="translate(-2026.725 1213.915)"/>
  </g>
</svg>
